<svg version="1.2" xmlns="http://www.w3.org/2000/svg" viewBox="0 0 240 240" width="240" height="240">
	<title>codrops-logo-simple-svg</title>
	<style>
		.s0 { fill: #334bf7 } 
		.s1 { fill: #ffffff } 
	</style>
	<g id="Page-1">
		<g id="Group">
			<path id="Shape" fill-rule="evenodd" class="s0" d="m120 239.1c-65.9 0-119.1-53.2-119.1-119.1 0-65.9 53.2-119.1 119.1-119.1 65.9 0 119.1 53.2 119.1 119.1 0 65.9-53.2 119.1-119.1 119.1z"/>
			<path id="Shape" fill-rule="evenodd" class="s1" d="m119.9 162.5c16.3-0.5 29.1-14.7 26.6-33.3-1.1-8.8-7.6-19.2-11.8-27.2-5.1-9.5-10.1-17.4-14.8-25-4.6 7.6-9.7 15.5-14.8 25-4.2 8-10.6 18.4-11.8 27.2-2.4 18.6 10.3 32.8 26.6 33.3z"/>
		</g>
	</g>
</svg>